<?xml version="1.0" encoding="utf-8"?>
<!-- Generator: Adobe Illustrator 26.1.0, SVG Export Plug-In . SVG Version: 6.00 Build 0)  -->
<svg version="1.1" id="icon" xmlns="http://www.w3.org/2000/svg" xmlns:xlink="http://www.w3.org/1999/xlink" x="0px" y="0px"
	 viewBox="0 0 4000 4000" style="enable-background:new 0 0 4000 4000;" xml:space="preserve">
<g>
	<rect style="display:none;fill:#EAFDCA;" width="4000" height="4000"/>
	<ellipse style="display:none;opacity:0.3;fill:#1E276A;" cx="2141.41" cy="3448.27" rx="993.95" ry="103.66"/>
	<g>
		<g>
			<g>
				<path style="fill:#E3CFFF;" d="M698.88,1130.96L289.67,2575.57c-16.77,59.19,29.7,117.13,91.17,114.11
					c407.64-20.16,768.65,67.62,1134.74,278.23c49.08,28.23,87.37,73.23,103.27,127.57c15.86,54.48,58.65,99.85,117.2,116.44
					c58.7,16.63,118.94,0.37,161.13-37.82c41.61-37.75,97.74-55.47,153.83-52.25c307.86,17.77,611.48,104.53,889.52,241.11
					c77.12,37.83,152.32,79.49,225.05,124.59c50.74,31.41,117.51,5.69,133.8-51.82l410.47-1449.08
					c10.04-35.46-2.5-73.69-32.01-95.92c-28.02-21.13-56.06-41.36-84.21-60.72c-453.23-312.35-920.4-398.24-1373.14-328.27
					c-446.26-349.73-949.6-500.91-1446.45-435.44C738.32,1071.03,708.71,1096.27,698.88,1130.96z"/>
			</g>
			<g style="opacity:0.3;">
				<path style="fill:#1E276A;" d="M698.88,1130.96L289.67,2575.57c-16.77,59.19,29.7,117.13,91.17,114.11
					c407.64-20.16,768.65,67.62,1134.74,278.23c49.08,28.23,87.37,73.23,103.27,127.57c15.86,54.48,58.65,99.85,117.2,116.44
					c58.7,16.63,118.94,0.37,161.13-37.82c41.61-37.75,97.74-55.47,153.83-52.25c160.09,9.23,319.03,37.14,473.77,80.97
					c8.24,2.33,16.52,4.76,24.74,7.16c6.12,1.81,12.24,3.62,18.35,5.5c6.45,1.98,12.83,3.94,19.26,5.98
					c6.24,1.92,12.46,3.91,18.69,5.9c7.95,2.55,15.94,5.2,23.94,7.84c0.82,0.31,1.66,0.54,2.47,0.85c8.35,2.74,16.58,5.6,24.82,8.46
					c0.42,0.12,0.84,0.24,1.24,0.43c8.59,2.96,17.08,5.97,25.63,9.07c8.76,3.16,17.44,6.3,26.16,9.6
					c8.95,3.29,17.85,6.72,26.76,10.14c8.44,3.22,16.92,6.53,25.3,9.96c8.63,3.35,17.28,6.86,25.85,10.41
					c17.22,7.07,34.32,14.32,51.34,21.85c6.91,3.01,13.82,6.03,20.63,9.16c4.15,1.85,8.37,3.73,12.5,5.65
					c6.14,2.8,12.29,5.59,18.41,8.46c8.14,3.74,16.26,7.55,24.29,11.4c0.12,0.11,0.19,0.13,0.26,0.15c8.45,3.98,16.81,8,25.13,12.17
					l0.07,0.02c77.12,37.83,152.25,79.47,224.98,124.57c50.74,31.41,117.51,5.69,133.8-51.82l3.74-13.19
					c-26.64,13.41-59.7,13.55-87.87-3.86c-17.96-11.14-36.08-22.08-54.35-32.79c-37.63-22.08-41.87-74.78-7.98-102.24l37.58-30.45
					l403.14-1423.18c-453.23-312.35-920.4-398.24-1373.14-328.27c-446.26-349.73-949.6-500.91-1446.45-435.44
					c-10.41,1.35-20.26,4.44-29.25,9.05c-0.18,0.1-0.34,0.13-0.45,0.25c-1.14,0.58-2.31,1.23-3.47,1.88
					c-3.49,1.95-6.84,4.17-9.94,6.61c-1.33,0.98-2.6,1.98-3.79,3c-3.05,2.53-5.98,5.39-8.64,8.41c-0.64,0.65-1.2,1.32-1.79,2.06
					c-3.25,3.75-6.16,7.91-8.74,12.23c-1.41,2.31-2.63,4.76-3.78,7.22c-0.45,0.78-0.84,1.65-1.17,2.53
					c-0.55,1.13-1.02,2.27-1.45,3.51c-0.46,1.08-0.82,2.1-1.19,3.13C699.86,1127.77,699.33,1129.35,698.88,1130.96z"/>
			</g>
			<g style="opacity:0.55;">
				<path style="fill:#FFFFFF;" d="M3647.04,1968.86l-410.47,1449.08c-10.7,37.76-43.14,61.82-78.57,64.98
					c2.5,1.54,5.08,3.1,7.58,4.64c50.74,31.41,117.51,5.69,133.8-51.82l410.47-1449.08c10.04-35.46-2.5-73.69-32.01-95.92
					c-232.87-175.74-469.87-290.07-707.2-352.7c216.23,65.47,432.06,174.71,644.38,334.9
					C3644.54,1895.17,3657.08,1933.41,3647.04,1968.86z"/>
			</g>
			<g>
				<path style="fill:#00501E;" d="M3151.46,3510.32c-346.84-215.08-727.9-340.16-1101.98-361.71
					c-50.36-2.91-99.34,13.62-134.34,45.34c-50.82,46.06-120.5,62.41-186.38,43.75c-65.75-18.62-116.46-68.97-135.65-134.7
					c-13.48-46.17-45.75-85.89-90.85-111.84c-360.58-207.41-716.54-294.7-1120.1-274.72c-38.23,1.88-73.64-14.16-97.37-44.01
					c-23.62-29.7-31.24-67.67-20.9-104.17L673.1,1123.65v0c12.69-44.82,50.93-77.76,97.44-83.92
					c502.77-66.26,1006.49,83.73,1457.34,433.78c521.99-77.66,1015.19,55.5,1466.09,395.81c37.94,28.58,54.69,78.67,41.67,124.63
					l-410.48,1449.08c-10.06,35.51-35.55,63.53-69.95,76.88c-13.81,5.36-28.16,8.02-42.42,8.01
					C3191.46,3527.93,3170.32,3522,3151.46,3510.32z M2224.58,1528.21c-7.35,1.14-14.79-0.82-20.62-5.39
					c-441.58-346.06-934.83-494.77-1426.4-429.97c-25.28,3.35-46.04,21.17-52.9,45.4L315.45,2582.87
					c-5.58,19.69-1.47,40.18,11.28,56.21c12.86,16.17,32.19,24.86,52.79,23.84c414.35-20.52,779.57,69.03,1149.46,281.79
					c57.15,32.87,98.19,83.75,115.57,143.27c13.99,47.9,50.93,84.59,98.82,98.16c48.01,13.6,98.76,1.67,135.79-31.9
					c45.58-41.3,108.78-62.86,173.41-59.13c382.97,22.07,772.72,149.9,1127.12,369.66c17.03,10.54,37.49,12.44,56.14,5.2
					c18.58-7.21,32.35-22.35,37.78-41.53l410.48-1449.08c7.03-24.84-1.95-51.85-22.38-67.23
					c-358.17-270.33-743.36-406.43-1148.57-406.43C2418.04,1505.69,2321.78,1513.2,2224.58,1528.21z"/>
			</g>
			<g>
				<path style="fill:#FFFFFF;" d="M3083.05,2949.28c-409.98-368.3-997.76-345.89-1285.78,46.68l418.26-1476.56
					c242.75-383.61,899.45-461.39,1285.78-46.68L3083.05,2949.28z"/>
				<path style="fill:#1E276A;" d="M2212.04,1518.42l0.43-0.95c113.53-179.4,325.28-299.92,566.43-322.39
					c274.07-25.55,538.37,74.76,725.06,275.17l1.39,1.49l-418.81,1478.52l-1.58,5.6l-4.33-3.89
					c-211.8-190.27-482.24-283.99-741.97-257.15c-220.46,22.78-411.69,130.49-538.46,303.29l-11.89,16.21L2212.04,1518.42z
					 M3081.14,2942.71l416.12-1469c-185.07-197.76-446.57-296.66-717.69-271.4c-238.73,22.24-448.29,141.33-560.69,318.6
					l-412.83,1457.39c127.91-165.38,316.02-268.37,531.86-290.68c29.49-3.05,59.1-4.55,88.76-4.55
					C2658.52,2683.05,2892.6,2775.13,3081.14,2942.71z"/>
			</g>
			<g>
				<path style="fill:#00501E;" d="M1785.47,3020.04c-11.65-5.69-17.55-18.9-14.02-31.38l418.26-1476.58
					c0.71-2.48,1.76-4.85,3.14-7.02c117.36-185.44,335.65-309.94,583.92-333.06c281.32-26.19,552.52,76.76,744.14,282.45
					c6.39,6.86,8.73,16.55,6.17,25.57L3108.82,2956.6c-2.52,8.9-9.45,15.86-18.34,18.44c-8.89,2.57-18.47,0.37-25.35-5.81
					c-206.92-185.89-470.83-277.49-724.03-251.36c-213.9,22.09-399.37,126.49-522.28,293.96c-5.19,7.07-13.3,10.94-21.61,10.94
					C1793.24,3022.77,1789.23,3021.88,1785.47,3020.04z M2781.74,1225.36c-230.39,21.45-432.5,135.41-541.54,305.12l-384.24,1356.48
					c126.65-125.29,293.12-203.14,479.64-222.4c255.2-26.36,520.12,59.74,733.13,236.95l402.64-1421.43
					C3291.82,1293.92,3041.33,1201.24,2781.74,1225.36z"/>
			</g>
			<g>
				<path style="fill:#FFFFFF;" d="M2215.49,1519.4l-418.26,1476.58c81.31-243.94,255.22-398.47,465.71-459.63l0.02-0.07
					c217.84-63.45,474.92-26.89,708.81,113.85l418.26-1476.58c-215.44-169.14-481.8-190.76-710.27-108.69
					C2470.01,1140.18,2292.26,1302.97,2215.49,1519.4z"/>
				<path style="fill:#1E276A;" d="M1793.74,2994.98L2212,1518.41l0.07-0.22c73.61-207.55,247.99-378.29,466.46-456.74
					c246.83-88.67,513.65-47.84,713.73,109.25l1.91,1.5l-420.22,1483.48l-4.07-2.45c-226.44-136.26-482.93-177.76-704.06-114.01
					l-1.88,0.61c-221.95,64.49-386.48,226.9-463.28,457.3L1793.74,2994.98z M2261.94,2532.79
					c222.18-64.72,479.81-23.95,707.62,111.79l416.31-1469.68c-200.78-156.6-457.56-195.48-704.89-106.63
					c-216.4,77.7-389.12,246.76-462.03,452.22L1822,2921.84c85.7-193.44,238.89-330,438.06-388.44L2261.94,2532.79z"/>
			</g>
			<g>
				<path style="fill:#00501E;" d="M1789.38,3021.57c-13.91-4.29-21.86-18.9-17.89-32.91l418.26-1476.56
					c0.16-0.56,0.33-1.11,0.53-1.65c82.5-232.59,280.46-414.57,529.52-486.78c242.58-70.34,492.89-23.38,686.77,128.81
					c8.55,6.71,12.2,17.92,9.23,28.38l-418.26,1476.56c-2.27,8.03-8.16,14.54-15.93,17.61c-7.76,3.07-16.51,2.35-23.66-1.96
					c-240.1-144.45-507.45-179.41-733.49-95.93c-190.76,70.45-333.45,222.21-401.78,427.3c-3.73,11.21-14.17,18.33-25.41,18.33
					C1794.66,3022.76,1792,3022.38,1789.38,3021.57z M2955.39,2609.61l403.89-1425.84c-178.08-132.75-404.66-172.38-624.57-108.63
					c-232.25,67.34-416.73,236.42-493.65,452.42l-348.39,1229.92c80.62-104.89,187.19-184.05,313.22-230.6
					c86.78-32.05,179.04-47.85,273.5-47.85C2637.32,2479.02,2801.29,2523.24,2955.39,2609.61z"/>
			</g>
			<g>
				<path style="fill:#FFFFFF;" d="M1797.23,2995.97c432.61-241.92,898.05-22.69,1393.27,257.22l-107.46-303.9
					C2673.04,2580.96,2085.3,2603.42,1797.23,2995.97z"/>
				<path style="fill:#1E276A;" d="M3188.71,3256.35C2703.96,2982.36,2232.9,2756.5,1799,2999.14l-14.57,8.15l9.88-13.46
					c128.05-174.49,321.13-283.23,543.67-306.22c261.77-27.05,534.19,67.37,747.49,258.99l0.69,0.62l110.99,313.9L3188.71,3256.35z
					 M2338.72,2694.82c-214.74,22.17-401.77,124.94-528.53,289.93c430.52-229.97,895.47-9.28,1373.66,260.52l-103.92-293.89
					C2868.26,2761.54,2598.12,2668.04,2338.72,2694.82z"/>
			</g>
			<g>
				<polygon style="fill:#FFFFFF;" points="3501.31,1472.72 3083.04,2949.3 3190.5,3253.19 3593.6,1830.15 				"/>
				<path style="fill:#1E276A;" d="M3079.62,2950.51l-0.39-1.09l422.23-1490.58l95.64,370.4l0.25,0.95l-406.48,1434.96
					L3079.62,2950.51z M3501.14,1486.6l-414.3,1462.58l103.27,292.05l399.73-1411.12L3501.14,1486.6z"/>
			</g>
			<g>
				<path style="fill:#00501E;" d="M3177.31,3276.52c-478.79-270.63-943.61-493.93-1367.01-257.16c-10.99,6.15-24.8,3.8-33.15-5.64
					c-8.35-9.44-8.98-23.43-1.52-33.59c131.97-179.83,330.83-291.9,559.97-315.56c268.24-27.71,547.2,68.82,765.35,264.8
					c3.33,2.99,5.86,6.78,7.35,11l107.45,303.9c3.73,10.53,0.52,22.28-8.04,29.46c-4.94,4.14-11.06,6.27-17.22,6.27
					C3185.97,3279.99,3181.43,3278.85,3177.31,3276.52z M2341.1,2717.87c-170.71,17.63-323.31,87.68-440.45,200.38
					c394.84-148.9,812.47,38.31,1240.84,276.73l-81.42-230.26C2853.92,2781.85,2592.27,2691.95,2341.1,2717.87z"/>
			</g>
			<g>
				<path style="fill:#00501E;" d="M3165.24,3262.13l-107.45-303.9c-1.85-5.23-2.03-10.9-0.52-16.24l418.26-1476.58
					c3.27-11.54,13.8-19.49,25.78-19.49c0.11,0,0.21,0,0.32,0c12.1,0.14,22.61,8.38,25.63,20.09l92.29,357.43
					c1.19,4.6,1.13,9.43-0.16,14l-403.1,1423.04c-3.18,11.22-13.26,19.1-24.93,19.47c-0.29,0.01-0.57,0.01-0.86,0.01
					C3179.17,3279.99,3169.03,3272.86,3165.24,3262.13z M3500.11,1575.25L3111.14,2948.4l76.53,216.44l378.16-1335.02
					L3500.11,1575.25z"/>
			</g>
			<g>
				<path style="fill:#FFFFFF;" d="M1145.25,805.33L726.98,2281.91c322.8-58.67,626.67,33.58,828.03,220.23
					c136.86,126.9,226.29,297.45,242.21,493.84l418.26-1476.58c-2.26-188.98-93.49-370.51-238.62-507.07l-0.07-0.02
					C1773.43,820.8,1464.09,717.49,1145.25,805.33z"/>
				<path style="fill:#1E276A;" d="M1793.61,2996.27c-15.36-189.53-98.72-359.48-241.06-491.47
					c-208.56-193.32-516.96-275.31-824.92-219.32l-5.72,1.04l419.85-1482.17l0.56-1.97l1.97-0.54c151.34-41.7,310.75-42.13,461-1.27
					c139.5,37.94,268.6,110.04,373.39,208.52l0.69,0.61c150.19,141.32,237.57,327.08,239.76,509.67l0.01,0.52l-423.89,1496.43
					L1793.61,2996.27z M1975.01,1015.56l-0.69-0.61c-222.91-209.91-531.6-287.1-826.14-206.66L732.05,2277.31
					c308.32-54.33,616.5,28.5,825.43,222.16c138.83,128.73,222.08,293.25,241.55,476.82l412.83-1457.39
					C2209.54,1338.71,2123.24,1155.32,1975.01,1015.56z"/>
			</g>
			<g>
				<path style="fill:#00501E;" d="M1794.62,3022.64c-12.9-1.26-23.05-11.58-24.09-24.5c-16.78-207.02-119.92-393.17-290.42-524.14
					c-201.88-155.08-474.65-215.48-748.32-165.73c-9.12,1.65-18.41-1.5-24.63-8.35c-6.22-6.85-8.47-16.41-5.94-25.31l418.26-1476.58
					c2.55-9.01,9.63-16.04,18.67-18.53c271.04-74.64,555.98-20.04,781.75,149.81c199.23,149.89,319.75,370.36,322.4,589.77
					c0.03,2.58-0.31,5.14-1.01,7.63l-418.26,1476.58c-3.29,11.62-13.9,19.49-25.76,19.49
					C1796.38,3022.76,1795.5,3022.72,1794.62,3022.64z M1887.67,972.12c-208.36-156.76-470.25-209.17-720.8-144.83L764.23,2248.72
					c274.32-39.18,545.05,26.47,748.52,182.78c148.68,114.21,249.55,267.77,291.66,440.83l384.24-1356.45
					C2184.84,1314.22,2072.55,1111.22,1887.67,972.12z"/>
			</g>
			<g style="opacity:0.4;">
				<g>
					<path style="fill:#1E276A;" d="M2405.06,1415.19c53.74-33.71,109.31-63.14,167.37-86.28c57.87-23.5,118.03-40.67,179.28-51.66
						c15.39-2.2,30.76-4.76,46.19-6.68c15.5-1.21,30.96-3.14,46.5-4.21c15.55-0.43,31.12-1.23,46.7-1.39
						c15.56,0.41,31.18,0.42,46.77,1.13c62.38,3.35,124.42,14.29,185.33,31.59c3.22,0.92,6.57-0.94,7.5-4.15
						c0.84-2.94-0.65-5.99-3.35-7.21c-58.85-26.29-122.39-42.7-186.98-49.97c-16.16-1.61-32.41-2.5-48.65-3.78
						c-16.26-0.45-32.54-0.1-48.83-0.17c-16.26,0.67-32.51,1.87-48.77,3.03c-16.18,1.83-32.29,4.33-48.44,6.48
						c-64.35,10.43-127.12,30.14-186.11,57.41c-58.8,27.63-114.06,62.9-161.82,106.23c-2.48,2.25-2.67,6.09-0.41,8.57
						C2399.33,1416.34,2402.61,1416.72,2405.06,1415.19z"/>
				</g>
			</g>
			<g style="opacity:0.4;">
				<g>
					<path style="fill:#1E276A;" d="M2892.9,1406.32c15.67,5.77,31.25,9.57,46.77,13.41c15.53,3.7,31.05,6.9,46.61,10.02l23.37,4.63
						c7.77,1.65,15.59,3.18,23.46,4.64c15.72,2.98,31.47,6.07,47.84,8.15c2.71,0.35,5.2-1.56,5.55-4.27
						c0.26-1.96-0.69-3.81-2.24-4.81c-14.07-9.02-29.12-15.99-44.52-22l-11.62-4.31l-11.81-3.74c-7.89-2.47-15.88-4.6-23.92-6.47
						c-16.09-3.75-32.46-6.34-48.97-7.36c-16.52-0.88-33.14-0.72-49.76,2.47c-2.72,0.52-4.51,3.15-3.98,5.88
						C2890.03,1404.34,2891.31,1405.73,2892.9,1406.32z"/>
				</g>
			</g>
			<g style="opacity:0.4;">
				<g>
					<path style="fill:#1E276A;" d="M2362.39,1565.82c31.38-16.76,61.81-33.73,92.97-49.2c30.95-15.79,62.51-30.02,94.38-43.56
						l24.15-9.56c8.16-2.89,16.2-6.11,24.33-9.15c16.37-5.69,32.82-11.24,49.4-16.55c33.22-10.42,67.03-19.17,101.41-27.71
						c3.27-0.8,5.27-4.11,4.46-7.37c-0.68-2.75-3.13-4.6-5.84-4.64c-36-0.48-72.01,3.69-107.42,10.8l-26.46,5.92l-26.14,7.27
						c-8.61,2.75-17.29,5.34-25.86,8.25l-25.44,9.5c-33.83,12.96-66.21,29.59-96.88,48.74c-30.47,19.48-59.34,41.54-84.37,67.62
						c-2.34,2.44-2.26,6.31,0.18,8.65C2357.21,1566.72,2360.12,1567.03,2362.39,1565.82z"/>
				</g>
			</g>
			<g style="opacity:0.4;">
				<g>
					<path style="fill:#1E276A;" d="M2316.67,1727.2c53.74-33.71,109.31-63.13,167.37-86.28c57.87-23.51,118.02-40.67,179.28-51.67
						c15.39-2.19,30.76-4.75,46.19-6.68c15.5-1.21,30.97-3.15,46.5-4.22c15.55-0.42,31.12-1.23,46.7-1.38
						c15.56,0.41,31.18,0.42,46.77,1.13c62.38,3.35,124.42,14.29,185.33,31.58c3.22,0.92,6.57-0.94,7.5-4.15
						c0.84-2.93-0.65-5.99-3.35-7.2c-58.85-26.29-122.39-42.7-186.98-49.97c-16.16-1.62-32.41-2.51-48.65-3.78
						c-16.25-0.45-32.54-0.1-48.83-0.17c-16.26,0.67-32.51,1.87-48.77,3.03c-16.18,1.83-32.29,4.33-48.44,6.48
						c-64.35,10.44-127.12,30.14-186.11,57.42c-58.8,27.63-114.06,62.9-161.82,106.23c-2.48,2.25-2.67,6.09-0.41,8.57
						C2310.95,1728.36,2314.23,1728.74,2316.67,1727.2z"/>
				</g>
			</g>
			<g style="opacity:0.4;">
				<g>
					<path style="fill:#1E276A;" d="M2272.91,1881.7c53.74-33.71,109.31-63.13,167.37-86.28c57.87-23.5,118.03-40.67,179.28-51.66
						c15.39-2.2,30.76-4.76,46.19-6.68c15.5-1.21,30.97-3.14,46.5-4.21c15.55-0.43,31.12-1.23,46.7-1.38
						c15.56,0.41,31.18,0.41,46.77,1.13c62.38,3.35,124.42,14.29,185.33,31.59c3.22,0.92,6.57-0.94,7.5-4.15
						c0.84-2.93-0.65-5.99-3.35-7.21c-58.85-26.29-122.39-42.7-186.98-49.97c-16.16-1.62-32.41-2.51-48.65-3.78
						c-16.26-0.45-32.54-0.1-48.83-0.17c-16.26,0.67-32.51,1.87-48.77,3.03c-16.18,1.83-32.29,4.33-48.44,6.48
						c-64.35,10.44-127.12,30.14-186.11,57.42c-58.8,27.63-114.06,62.9-161.82,106.23c-2.48,2.25-2.67,6.09-0.41,8.57
						C2267.19,1882.85,2270.47,1883.23,2272.91,1881.7z"/>
				</g>
			</g>
			<g style="opacity:0.4;">
				<g>
					<path style="fill:#1E276A;" d="M2463.59,2005.67c38.65-5.11,76.55-10.3,114.6-13.24c37.97-3.33,75.94-4.38,113.88-4
						c9.48,0.37,18.97,0.57,28.45,1.07l28.43,1.77c18.92,1.7,37.83,3.76,56.73,6.26c37.79,5.22,75.31,12.94,113.1,21.84
						c3.27,0.78,6.55-1.24,7.33-4.51c0.67-2.79-0.73-5.61-3.19-6.85c-35.31-17.73-73.06-30.62-111.71-39.81
						c-9.68-2.2-19.44-4.12-29.18-6.18c-9.8-1.69-19.66-3.01-29.5-4.53c-9.87-1.22-19.77-2.31-29.69-3.23
						c-9.93-0.7-19.88-1.09-29.82-1.64c-39.82-1.7-79.76,1.28-118.94,7.84c-39.11,6.94-77.61,17.48-113.8,33.6
						c-3.08,1.37-4.46,4.98-3.09,8.07C2458.32,2004.64,2460.97,2006.02,2463.59,2005.67z"/>
				</g>
			</g>
			<g style="opacity:0.4;">
				<g>
					<path style="fill:#1E276A;" d="M2199.9,2135.91c12.45-3.83,23.48-9.23,34.32-14.86c10.76-5.73,21.07-12.01,31.2-18.62
						c10.14-6.58,20.19-13.34,30.04-20.55c9.81-7.32,19.65-14.66,28.95-23.43c2.04-1.91,2.14-5.1,0.23-7.13
						c-1.2-1.28-2.95-1.79-4.56-1.52c-12.73,2.26-24.64,6.45-36.33,11.15c-11.63,4.81-22.8,10.57-33.56,16.99
						c-10.78,6.4-21.08,13.61-30.61,21.84c-9.45,8.33-18.38,17.36-25.53,28.42c-1.54,2.38-0.86,5.57,1.52,7.11
						C2196.89,2136.18,2198.5,2136.34,2199.9,2135.91z"/>
				</g>
			</g>
			<g style="opacity:0.4;">
				<g>
					<path style="fill:#1E276A;" d="M2148.58,2320.61c53.74-33.71,109.31-63.13,167.37-86.28c57.87-23.5,118.02-40.67,179.28-51.67
						c15.4-2.19,30.76-4.75,46.19-6.68c15.5-1.21,30.97-3.15,46.5-4.21c15.55-0.43,31.12-1.23,46.7-1.39
						c15.56,0.41,31.18,0.42,46.77,1.13c62.38,3.35,124.42,14.29,185.33,31.58c3.22,0.92,6.57-0.94,7.5-4.15
						c0.84-2.93-0.65-5.99-3.35-7.2c-58.85-26.29-122.39-42.7-186.98-49.97c-16.16-1.61-32.41-2.51-48.65-3.78
						c-16.26-0.45-32.54-0.1-48.83-0.17c-16.26,0.67-32.52,1.87-48.77,3.04c-16.18,1.83-32.29,4.32-48.44,6.48
						c-64.35,10.44-127.12,30.14-186.11,57.41c-58.8,27.63-114.06,62.9-161.82,106.23c-2.48,2.25-2.67,6.09-0.42,8.57
						C2142.86,2321.77,2146.14,2322.15,2148.58,2320.61z"/>
				</g>
			</g>
			<g style="opacity:0.4;">
				<g>
					<path style="fill:#1E276A;" d="M2124.91,1517.61c-12.43-51.36-33.78-100.54-60.32-146.54
						c-26.91-45.82-59.12-88.64-95.85-127.05c-9.39-9.4-18.36-19.22-28.1-28.25c-9.79-8.97-19.42-18.11-29.62-26.6
						c-10.3-8.36-20.25-17.14-30.83-25.12c-10.75-7.76-21.23-15.87-32.18-23.31c-43.64-29.94-90.23-55.51-139.19-74.73
						c-3.12-1.23-6.64,0.31-7.86,3.43c-1.09,2.78,0.03,5.89,2.49,7.4c44.24,27.09,86.8,55.98,126.83,87.91
						c19.93,16.05,39.35,32.64,58.19,49.84c18.59,17.47,36.77,35.31,54.12,53.95c34.43,37.5,66.35,77.25,94.65,119.64
						c28.67,42.2,53.58,86.89,76.29,133.51c1.46,3.02,5.09,4.29,8.11,2.84C2124.26,1523.26,2125.56,1520.33,2124.91,1517.61z"/>
				</g>
				<g>
					<path style="fill:#1E276A;" d="M2085.05,1658.33c-12.83-52.48-34.86-102.7-62.25-149.59c-27.76-46.71-61.01-90.27-98.89-129.23
						c-9.68-9.52-18.93-19.5-28.98-28.63c-10.09-9.07-20.02-18.35-30.54-26.92c-10.62-8.44-20.88-17.32-31.79-25.37
						c-11.08-7.82-21.88-16-33.16-23.47c-44.97-30.11-92.94-55.65-143.28-74.6c-3.13-1.18-6.63,0.4-7.81,3.54
						c-1.06,2.81,0.12,5.91,2.62,7.38c45.71,26.88,89.68,55.78,131.03,87.9c20.59,16.15,40.64,32.88,60.1,50.26
						c19.2,17.66,37.97,35.73,55.87,54.64c35.53,38.05,68.44,78.49,97.56,121.73c29.48,43.04,55.03,88.71,78.13,136.43
						c1.45,3.03,5.08,4.31,8.11,2.85C2084.41,1664,2085.71,1661.06,2085.05,1658.33z"/>
				</g>
				<g>
					<path style="fill:#1E276A;" d="M1548.32,1395.03c-13.57-10.39-28.44-18.14-43.65-24.99c-15.27-6.72-31.09-12.07-47.19-16.35
						c-8.05-2.15-16.16-4.06-24.34-5.65l-12.27-2.35l-12.38-1.8c-16.53-2.14-33.22-3.38-50.07-2.43c-2.73,0.15-4.82,2.49-4.67,5.22
						c0.11,1.98,1.39,3.63,3.11,4.32c15.49,6.24,31,11.22,46.45,16.19c7.72,2.51,15.44,4.93,23.18,7.2l23.15,7.05
						c15.44,4.63,30.91,9.07,46.63,13c15.78,3.8,31.6,7.58,48.39,9.55c2.75,0.33,5.25-1.63,5.58-4.38
						C1550.47,1397.79,1549.67,1396.07,1548.32,1395.03z"/>
				</g>
				<g>
					<path style="fill:#1E276A;" d="M2024.42,1872.35c-10.05-44.76-27.58-87.75-49.27-128.38c-22.05-40.45-48.38-78.67-78.57-113.48
						c-7.7-8.56-15.11-17.4-23.06-25.72c-8.02-8.26-16.01-16.55-24.36-24.46c-8.48-7.78-16.69-15.83-25.37-23.36
						c-8.87-7.32-17.54-14.84-26.55-21.95c-36.04-28.4-74.62-53.51-115.63-73.55c-3.01-1.47-6.65-0.22-8.12,2.79
						c-1.29,2.64-0.47,5.77,1.76,7.49c35.65,27.46,70.13,55.68,102.58,85.94c16.16,15.2,31.91,30.73,47.27,46.62
						c15.09,16.15,29.94,32.47,44.13,49.35c28.1,33.99,54.43,69.38,78.11,106.66c24.05,37.1,45.31,75.95,65.69,116.1
						c1.51,3.01,5.17,4.22,8.18,2.71C2023.76,1877.86,2025.01,1875.01,2024.42,1872.35z"/>
				</g>
				<g>
					<path style="fill:#1E276A;" d="M1978.96,2032.85c-19.93-72.07-54.59-140.13-98.17-201.46
						c-43.94-61.16-96.93-115.91-156.52-161.98c-29.71-23.14-60.92-44.35-93.48-63.17l-24.64-13.74
						c-8.18-4.63-16.37-9.23-24.98-13.04l-25.55-11.9c-8.52-3.95-16.94-8.09-25.79-11.28c-69.38-28.58-142.55-47.89-216.67-55.53
						c-3.33-0.34-6.3,2.08-6.65,5.4c-0.32,3.07,1.76,5.86,4.69,6.53c71.57,16.5,140.93,39.9,206.59,70.92
						c32.74,15.65,64.68,32.83,95.53,51.78c30.67,19.2,60.47,39.78,88.82,62.22c56.53,45.03,108.23,96.12,152.81,153.1
						c44.9,56.77,82.53,119.29,112.61,186.21c1.36,3.06,4.93,4.45,8,3.09C1978.35,2038.78,1979.73,2035.69,1978.96,2032.85z"/>
				</g>
				<g>
					<path style="fill:#1E276A;" d="M1935.16,2187.5c-19.93-72.07-54.59-140.14-98.17-201.46
						c-43.94-61.17-96.94-115.92-156.52-161.98c-29.71-23.14-60.92-44.35-93.48-63.17l-24.64-13.73
						c-8.18-4.63-16.37-9.23-24.98-13.04l-25.55-11.9c-8.52-3.95-16.94-8.09-25.79-11.27c-69.38-28.59-142.55-47.89-216.67-55.54
						c-3.33-0.34-6.3,2.08-6.64,5.41c-0.32,3.07,1.75,5.85,4.69,6.53c71.57,16.5,140.93,39.9,206.59,70.92
						c32.74,15.65,64.68,32.83,95.53,51.78c30.67,19.2,60.47,39.78,88.82,62.22c56.53,45.03,108.23,96.12,152.81,153.11
						c44.9,56.77,82.53,119.29,112.61,186.2c1.36,3.06,4.93,4.45,8,3.09C1934.54,2193.43,1935.93,2190.34,1935.16,2187.5z"/>
				</g>
				<g>
					<path style="fill:#1E276A;" d="M1867.88,2557.96c-19.93-72.07-54.59-140.14-98.17-201.46
						c-43.94-61.17-96.94-115.92-156.52-161.98c-29.71-23.14-60.92-44.35-93.48-63.17l-24.64-13.73
						c-8.18-4.63-16.37-9.23-24.98-13.04l-25.55-11.9c-8.52-3.95-16.94-8.09-25.79-11.27c-69.38-28.59-142.55-47.89-216.67-55.54
						c-3.33-0.34-6.3,2.08-6.64,5.41c-0.32,3.07,1.75,5.85,4.69,6.53c71.57,16.5,140.93,39.9,206.59,70.91
						c32.74,15.65,64.68,32.83,95.53,51.78c30.67,19.2,60.47,39.78,88.82,62.22c56.53,45.03,108.23,96.12,152.81,153.11
						c44.9,56.77,82.53,119.28,112.61,186.2c1.36,3.06,4.93,4.45,8,3.09C1867.27,2563.89,1868.65,2560.8,1867.88,2557.96z"/>
				</g>
				<g>
					<path style="fill:#1E276A;" d="M1603.68,1025.23c-13.07-12.26-28.11-20.93-43.87-28.33c-15.82-7.21-32.6-12.38-49.81-15.68
						l-12.99-2.14c-4.37-0.53-8.78-0.76-13.16-1.15c-8.75-0.77-17.64-0.61-26.43-0.05c-17.62,1.09-35.14,5.34-51.12,12.46
						c-2.48,1.11-3.6,4.01-2.49,6.49c0.8,1.81,2.56,2.89,4.41,2.92l0.34,0c16.78,0.23,32.64,0.15,48.56,2.01
						c15.85,1.94,31.53,4.06,47.12,7.73c15.57,3.5,31.08,7.49,46.76,11.68c15.68,4.09,31.5,8.68,47.85,12.46l0.3,0.07
						c2.67,0.62,5.34-1.05,5.95-3.72C1605.53,1028.18,1604.92,1026.4,1603.68,1025.23z"/>
				</g>
			</g>
			<g>
				<path style="fill:#FFFFFF;" d="M476.11,2484.3c568.45,21.39,1079.72,78.83,1321.12,511.67
					c-39.33-485.3-527.97-812.66-1070.25-714.07L476.11,2484.3z"/>
				<path style="fill:#1E276A;" d="M1794.06,2997.74c-242.12-434.13-761.64-488.87-1318.08-509.82l-9.68-0.36l258.41-208.48
					l0.72-0.58l0.91-0.16c282.14-51.31,563.63,11.22,772.3,171.53c177.4,136.28,284.73,330.12,302.21,545.81l1.35,16.64
					L1794.06,2997.74z M728.54,2285.31l-242.61,195.74c548.65,21.06,1060.26,77.01,1306.16,498.58
					c-21.37-206.94-126.69-392.51-297.87-524c-159.61-122.61-362.2-187.56-574.99-187.56
					C856.28,2268.06,792.41,2273.75,728.54,2285.31z"/>
			</g>
			<g>
				<polygon style="fill:#FFFFFF;" points="879.21,1061.26 476.11,2484.3 726.98,2281.91 1145.25,805.33 				"/>
				<path style="fill:#1E276A;" d="M875.72,1060.27l0.27-0.95l276.4-265.9L730.47,2282.89l-0.32,1.11l-260.64,210.28L875.72,1060.27
					z M1138.11,817.23l-255.67,245.96L482.71,2474.32l241.1-194.51L1138.11,817.23z"/>
			</g>
			<g style="opacity:0.3;">
				<path style="fill:#1E276A;" d="M476.11,2484.3c568.45,21.39,1079.72,78.83,1321.12,511.67
					c-39.33-485.3-527.97-812.66-1070.25-714.07L476.11,2484.3z"/>
			</g>
			<g style="opacity:0.3;">
				<polygon style="fill:#1E276A;" points="879.21,1061.26 476.11,2484.3 726.98,2281.91 1145.25,805.33 				"/>
			</g>
			<g>
				<path style="fill:#00501E;" d="M1773.83,3009.02c-236.26-423.62-749.14-477.27-1298.72-497.95
					c-11.16-0.42-20.9-7.73-24.42-18.33s-0.09-22.28,8.6-29.3l250.87-202.4c3.49-2.81,7.62-4.71,12.03-5.51
					c288.56-52.46,576.7,11.67,790.56,175.95c182.66,140.31,293.17,340.01,311.19,562.31c1.02,12.56-6.86,24.14-18.92,27.8
					c-2.58,0.78-5.2,1.16-7.79,1.16C1787.71,3022.77,1778.66,3017.68,1773.83,3009.02z M738.46,2307.07l-190.09,153.36
					c489.77,21.66,943.54,81.29,1201.58,415.14c-40.61-157.38-133.77-297.04-269.85-401.57
					c-155.55-119.49-353.13-182.77-560.85-182.77C859.57,2291.23,799.04,2296.45,738.46,2307.07z"/>
			</g>
			<g>
				<path style="fill:#00501E;" d="M461.34,2506.65c-9.73-6.44-14.19-18.43-11.01-29.66l403.1-1423.04c1.3-4.57,3.78-8.71,7.2-12
					l266.03-255.93c8.72-8.39,21.99-9.89,32.36-3.67c10.37,6.22,15.29,18.63,11.99,30.28L752.76,2289.21
					c-1.51,5.33-4.64,10.07-8.95,13.55l-250.87,202.4c-4.89,3.95-10.85,5.94-16.82,5.94
					C470.98,2511.09,465.84,2509.62,461.34,2506.65z M1092.5,893.26l-189.48,182.28L524.85,2410.56l178.67-144.15L1092.5,893.26z"/>
			</g>
			<g style="opacity:0.3;">
				<path style="fill:#6B184E;" d="M2839.32,3315.97c-17.02-7.53-34.11-14.79-51.34-21.85
					C2805.19,3301.25,2822.28,3308.5,2839.32,3315.97z"/>
				<path style="fill:#1E276A;" d="M2837.86,3319.29l2.93-6.64c-16.48-7.3-33.3-14.46-51.43-21.89l-2.77,6.71
					C2804.84,3305.03,2821.61,3312.17,2837.86,3319.29z"/>
			</g>
			<g style="opacity:0.3;">
				<path style="fill:#1E276A;" d="M1976.81,1012.31l-419.15,1479.72c0,0-0.94,3.58-2.64,10.11
					c136.86,126.9,226.29,297.45,242.21,493.84l418.26-1476.58c-2.26-188.98-93.49-370.51-238.62-507.07L1976.81,1012.31z"/>
			</g>
			<g style="opacity:0.3;">
				<path style="fill:#1E276A;" d="M2767.48,2555.1l-50.67,178.88c-328.43-102.85-620.06-42.76-870.1,201.42
					C2005.89,2560.71,2312.81,2433.94,2767.48,2555.1z"/>
			</g>
			<g style="opacity:0.3;">
				<path style="fill:#1E276A;" d="M2215.49,1519.4l-418.26,1476.58c81.31-243.94,255.22-398.47,465.71-459.63l416.82-1471.48
					C2470.01,1140.18,2292.26,1302.97,2215.49,1519.4z"/>
			</g>
			<g>
				<polygon style="fill:#ABFE2C;" points="2547.8,2825.48 2736.18,2878.84 2653.17,3171.89 2577.2,3080.89 2464.79,3118.53 				"/>
			</g>
			<g style="opacity:0.55;">
				<polygon style="fill:#FFFFFF;" points="2480.1,3064.43 2464.78,3118.52 2577.17,3080.89 2653.2,3171.9 2668.53,3117.8 
					2592.49,3026.79 				"/>
			</g>
			<g>
				<path style="fill:#00501E;" d="M2636.46,3185.84l-66.45-79.6l-98.32,32.92c-7.66,2.56-16.09,0.68-21.93-4.89
					c-5.84-5.57-8.11-13.92-5.92-21.68l83.01-293.05c1.57-5.55,5.28-10.25,10.33-13.07c5.04-2.81,10.99-3.51,16.54-1.94
					l188.39,53.36c11.56,3.27,18.28,15.31,15,26.87l-83.01,293.05c-2.2,7.76-8.51,13.67-16.4,15.35c-1.51,0.32-3.03,0.48-4.53,0.48
					C2646.79,3193.65,2640.65,3190.85,2636.46,3185.84z M2562.8,2852.35l-65.85,232.46l73.33-24.55c8.5-2.86,17.87-0.19,23.61,6.69
					l49.56,59.36l65.85-232.46L2562.8,2852.35z"/>
			</g>
		</g>
		<g>
			<g>
				<path style="fill:#00501E;" d="M2513.04,1088.88c11.24,0,21.52-7.52,24.53-18.9c11.94-45.16-3.07-92.78-41.19-130.67
					c-44.55-44.27-110.47-64.25-164.02-49.73c-13.53,3.67-21.53,17.62-17.86,31.15c3.67,13.53,17.62,21.52,31.15,17.86
					c36.05-9.76,83.32,5.33,114.94,36.75c24.91,24.75,35.07,54.52,27.89,81.66c-3.58,13.56,4.5,27.45,18.05,31.04
					C2508.7,1088.6,2510.89,1088.88,2513.04,1088.88z"/>
			</g>
			<g>
				<path style="fill:#00501E;" d="M1735.26,600.23l19.88,17.07c7.51,6.45,18.82,5.58,25.26-1.92l39.66-46.2
					c6.45-7.51,5.58-18.82-1.92-25.26l-19.88-17.07c-7.51-6.45-18.82-5.58-25.27,1.92l-39.66,46.2
					C1726.9,582.47,1727.76,593.78,1735.26,600.23z"/>
			</g>
			<g>
				<path style="fill:#00501E;" d="M2894.75,1595.7l19.88,17.07c7.51,6.45,18.82,5.58,25.26-1.92l39.66-46.2
					c6.45-7.51,5.58-18.82-1.92-25.26l-19.88-17.07c-7.51-6.45-18.82-5.58-25.26,1.92l-39.66,46.2
					C2886.38,1577.94,2887.24,1589.25,2894.75,1595.7z"/>
			</g>
			<g>
				<path style="fill:#00501E;" d="M2674.53,1766.61c12.49,0,23.37-9.22,25.12-21.94l26.15-190.41
					c7.52-54.75-11.67-110.42-51.33-148.92l-856.53-831.29c-10.06-9.76-26.14-9.52-35.9,0.54c-9.77,10.06-9.52,26.14,0.54,35.9
					l856.53,831.29c28.11,27.29,41.72,66.76,36.39,105.57l-26.15,190.41c-1.91,13.89,7.81,26.7,21.7,28.61
					C2672.21,1766.54,2673.38,1766.61,2674.53,1766.61z"/>
			</g>
			<g>
				<path style="fill:#00501E;" d="M2912.64,1572.72c7.68,0,15.26-3.46,20.25-10.06c8.47-11.18,6.27-27.1-4.9-35.57l-951.35-720.86
					c-44.05-33.37-101.97-43.92-154.97-28.2l-184.26,54.66c-13.44,3.99-21.11,18.12-17.12,31.56c3.99,13.45,18.11,21.12,31.56,17.12
					l184.26-54.66c37.56-11.15,78.63-3.67,109.86,19.99l951.35,720.86C2901.91,1571.04,2907.3,1572.72,2912.64,1572.72z"/>
			</g>
			<g style="opacity:0.45;">
				<path style="fill:#209DD8;" d="M2407.85,1144.21c-38.46,44.8-62.52,97.1-72.49,151.25c-13.02,70.18-2.45,143.51,30.76,207.49
					c13.7,26.58,31.29,51.53,52.7,74.03c7.48,7.76,15.31,15.25,23.67,22.43c34.4,29.53,73.24,50.55,113.87,63.25
					c119.35,37.27,254.71,2.99,341.33-97.9c32.94-38.36,55.32-82.25,67.31-128.17c14.01-53.18,14.08-109.05,0.59-161.93
					c-7.47-29.27-18.99-57.61-34.64-84.04c-17.5-29.84-40.22-57.28-67.9-81.05c-28.02-24.05-58.95-42.48-91.51-55.33
					C2647.11,1004.95,2499.95,1036.94,2407.85,1144.21z"/>
			</g>
			<g style="opacity:0.3;">
				<path style="fill:#1E276A;" d="M2515.71,1062.23c64-15.42,132.18-11.19,194.61,13.53c32.56,12.85,63.49,31.28,91.51,55.33
					c27.68,23.77,50.4,51.21,67.9,81.05c15.64,26.43,27.16,54.78,34.64,84.04c13.49,52.89,13.42,108.76-0.59,161.93
					c-11.99,45.92-34.37,89.81-67.31,128.17c-30.71,35.78-67.57,63.22-107.66,81.96c63.55-15.33,123.04-50.11,168.88-103.5
					c32.94-38.36,55.32-82.25,67.31-128.17c14.01-53.18,14.08-109.05,0.59-161.93c-7.47-29.27-18.99-57.61-34.64-84.04
					c-17.5-29.84-40.22-57.28-67.9-81.05c-28.02-24.05-58.95-42.48-91.51-55.33C2688.64,1021.39,2595.67,1024.66,2515.71,1062.23z"
					/>
			</g>
			<g style="opacity:0.45;">
				<circle style="fill:#209DD8;" cx="2030.21" cy="819.98" r="322.81"/>
			</g>
			<path style="opacity:0.3;fill:#FFFFFF;" d="M2428.07,1601.36c7.48,7.76,6.06-9.14,14.43-1.96
				c34.4,29.53,73.24,50.55,113.87,63.25L2965,1436.59c14.01-53.18,23.32-84.67,9.83-137.55L2428.07,1601.36z"/>
			<path style="opacity:0.3;fill:#FFFFFF;" d="M2340.82,1336.43c-13.02,70.18-4.53,120.88,28.68,184.86l564.83-312.34
				c-17.5-29.84-40.22-57.28-67.9-81.05c-28.02-24.05-32.39-33.26-64.96-46.11L2340.82,1336.43z"/>
			<path style="opacity:0.3;fill:#FFFFFF;" d="M1809.45,1063c7.48,7.76,6.06-9.14,14.43-1.96c34.4,29.53,73.24,50.55,113.87,63.25
				l408.63-226.07c14.01-53.18,23.32-84.67,9.83-137.55L1809.45,1063z"/>
			<path style="opacity:0.3;fill:#FFFFFF;" d="M1722.2,798.07c-13.02,70.18-4.54,120.87,28.68,184.86l564.83-312.34
				c-17.5-29.84-40.22-57.28-67.9-81.05c-28.01-24.05-32.39-33.26-64.96-46.11L1722.2,798.07z"/>
			<g>
				<path style="fill:#00501E;" d="M2425.96,1618.67c-70.57-60.59-113.32-145.02-120.38-237.76c-7.06-92.74,22.42-182.68,83-253.24
					l0,0c60.59-70.57,145.03-113.32,237.76-120.38c92.75-7.06,182.68,22.42,253.24,83c70.57,60.59,113.32,145.02,120.38,237.76
					c7.06,92.74-22.42,182.68-83,253.24c-60.59,70.57-145.02,113.32-237.76,120.38c-9.03,0.69-18.02,1.03-26.98,1.03
					C2569.15,1702.7,2489.66,1673.36,2425.96,1618.67z M2630.2,1057.93c-79.21,6.03-151.34,42.55-203.09,102.82l0,0
					c-51.75,60.28-76.93,137.1-70.9,216.31c6.03,79.21,42.55,151.34,102.82,203.09c60.27,51.75,137.06,76.95,216.31,70.9
					c79.21-6.03,151.34-42.55,203.09-102.82c51.75-60.28,76.93-137.1,70.9-216.31s-42.55-151.34-102.82-203.09
					c-54.41-46.72-122.3-71.78-193.27-71.78C2645.59,1057.05,2637.91,1057.34,2630.2,1057.93z"/>
			</g>
			<g>
				<path style="fill:#00501E;" d="M1803.39,1084.17c-70.57-60.59-113.32-145.02-120.38-237.76c-7.06-92.74,22.42-182.68,83-253.24
					c60.59-70.57,145.02-113.32,237.76-120.38c92.74-7.06,182.68,22.42,253.24,83c70.57,60.59,113.32,145.02,120.38,237.76
					c7.06,92.74-22.42,182.67-83,253.24c-60.59,70.57-145.02,113.32-237.76,120.38c-9.03,0.69-18.01,1.03-26.98,1.03
					C1946.58,1168.2,1867.09,1138.86,1803.39,1084.17z M2007.63,523.42c-79.21,6.03-151.34,42.55-203.09,102.82
					c-51.75,60.28-76.93,137.1-70.9,216.31s42.55,151.34,102.82,203.09c60.28,51.75,137.08,76.94,216.31,70.9
					c79.21-6.03,151.34-42.54,203.09-102.82c51.75-60.28,76.93-137.1,70.9-216.31c-6.03-79.21-42.55-151.34-102.82-203.09
					c-54.41-46.71-122.3-71.78-193.27-71.78C2023.03,522.55,2015.34,522.84,2007.63,523.42z"/>
			</g>
			<g style="opacity:0.3;">
				<path style="fill:#1E276A;" d="M1893.14,527.73c64-15.42,132.18-11.19,194.61,13.53c32.56,12.85,63.49,31.28,91.51,55.33
					c27.68,23.77,50.4,51.21,67.9,81.05c15.64,26.43,27.16,54.78,34.64,84.04c13.49,52.89,13.42,108.76-0.59,161.93
					c-11.99,45.92-34.37,89.81-67.31,128.17c-30.71,35.78-67.57,63.22-107.66,81.96c63.55-15.33,123.04-50.11,168.88-103.5
					c32.94-38.36,55.32-82.25,67.31-128.17c14.01-53.18,14.08-109.05,0.59-161.93c-7.47-29.27-18.99-57.61-34.64-84.04
					c-17.5-29.84-40.22-57.28-67.9-81.05c-28.01-24.05-58.95-42.48-91.51-55.33C2066.07,486.89,1973.1,490.16,1893.14,527.73z"/>
			</g>
		</g>
	</g>
</g>
</svg>
